<?xml version="1.0" encoding="UTF-8" standalone="no"?>
<svg
   width="315.07236"
   height="190.04362"
   viewBox="0 0 315.07236 190.04362"
   version="1.1"
   xml:space="preserve"
   id="SVGRoot"
   sodipodi:docname="dibujo-3.svg"
   inkscape:version="1.3.2 (091e20e, 2023-11-25, custom)"
   inkscape:export-filename="dibujo-3.svg"
   inkscape:export-xdpi="96"
   inkscape:export-ydpi="96"
   xmlns:inkscape="http://www.inkscape.org/namespaces/inkscape"
   xmlns:sodipodi="http://sodipodi.sourceforge.net/DTD/sodipodi-0.dtd"
   xmlns:xlink="http://www.w3.org/1999/xlink"
   xmlns="http://www.w3.org/2000/svg"
   xmlns:svg="http://www.w3.org/2000/svg"><sodipodi:namedview
   id="namedview1"
   pagecolor="#ffffff"
   bordercolor="#000000"
   borderopacity="0.25"
   inkscape:showpageshadow="2"
   inkscape:pageopacity="0.0"
   inkscape:pagecheckerboard="0"
   inkscape:deskcolor="#d1d1d1"
   inkscape:zoom="1.4142136"
   inkscape:cx="137.88582"
   inkscape:cy="48.436814"
   inkscape:window-width="1366"
   inkscape:window-height="705"
   inkscape:window-x="-8"
   inkscape:window-y="-8"
   inkscape:window-maximized="1"
   inkscape:current-layer="g104" /><defs
   id="defs126"><linearGradient
     id="linearGradient102"
     inkscape:collect="always"><stop
       style="stop-color:#282828;stop-opacity:1;"
       offset="0"
       id="stop103" /><stop
       style="stop-color:#a5a5a5;stop-opacity:1;"
       offset="1"
       id="stop104" /></linearGradient><linearGradient
     id="linearGradient99"
     inkscape:collect="always"><stop
       style="stop-color:#6b6b6b;stop-opacity:1;"
       offset="0"
       id="stop100" /><stop
       style="stop-color:#c0c0c0;stop-opacity:1;"
       offset="0.5"
       id="stop102" /><stop
       style="stop-color:#767676;stop-opacity:1;"
       offset="1"
       id="stop101" /></linearGradient><linearGradient
     id="linearGradient97"
     inkscape:collect="always"><stop
       style="stop-color:#414141;stop-opacity:1;"
       offset="0"
       id="stop97" /><stop
       style="stop-color:#bfbfbf;stop-opacity:1;"
       offset="0.5"
       id="stop99" /><stop
       style="stop-color:#525252;stop-opacity:1;"
       offset="1"
       id="stop98" /></linearGradient><linearGradient
     id="linearGradient92"
     inkscape:collect="always"><stop
       style="stop-color:#303030;stop-opacity:1;"
       offset="0"
       id="stop93" /><stop
       style="stop-color:#9c9c9c;stop-opacity:1;"
       offset="0.58789241"
       id="stop95" /><stop
       style="stop-color:#303030;stop-opacity:1;"
       offset="1"
       id="stop94" /></linearGradient><linearGradient
     id="linearGradient90"
     inkscape:collect="always"><stop
       style="stop-color:#303030;stop-opacity:1;"
       offset="0"
       id="stop90" /><stop
       style="stop-color:#9c9c9c;stop-opacity:1;"
       offset="0.59207863"
       id="stop92" /><stop
       style="stop-color:#303030;stop-opacity:1;"
       offset="1"
       id="stop91" /></linearGradient><linearGradient
     id="linearGradient88"
     inkscape:collect="always"><stop
       style="stop-color:#6e6e6e;stop-opacity:1;"
       offset="0"
       id="stop88" /><stop
       style="stop-color:#c2c2c2;stop-opacity:1;"
       offset="1"
       id="stop89" /></linearGradient><inkscape:perspective
     sodipodi:type="inkscape:persp3d"
     inkscape:vp_x="63.848702 : -16.93358 : 1"
     inkscape:vp_y="52.037469 : 1173.1605 : 0"
     inkscape:vp_z="336.24122 : 69.307954 : 1"
     inkscape:persp3d-origin="198.39673 : -10.971426 : 1"
     id="perspective1" /><pattern
     xlink:href="#pattern6-7"
     preserveAspectRatio="xMidYMid"
     id="pattern10"
     patternTransform="translate(190,350)" /><pattern
     patternUnits="userSpaceOnUse"
     width="29"
     height="20"
     patternTransform="translate(190,350)"
     preserveAspectRatio="xMidYMid"
     style="fill:#000000"
     id="pattern6-7"><path
       style="fill:none;stroke:#000000;stroke-width:10;stroke-linecap:butt;stroke-dasharray:none;paint-order:stroke markers fill;stop-color:#000000"
       d="M 0,5 C 19,5 10,15 29,15"
       id="path4-2" /></pattern><filter
     inkscape:collect="always"
     style="color-interpolation-filters:sRGB"
     id="filter36"
     x="-0.3264817"
     y="-0.31212932"
     width="1.6529634"
     height="1.6242586"><feGaussianBlur
       inkscape:collect="always"
       stdDeviation="2.2504739"
       id="feGaussianBlur36" /></filter><filter
     inkscape:collect="always"
     style="color-interpolation-filters:sRGB"
     id="filter37"
     x="-0.03221242"
     y="-0.061950045"
     width="1.0645516"
     height="1.1238889"><feGaussianBlur
       inkscape:collect="always"
       stdDeviation="0.84352256"
       id="feGaussianBlur37" /></filter><clipPath
     clipPathUnits="userSpaceOnUse"
     id="clipPath87"><path
       id="path88"
       style="fill:#ff0000;fill-opacity:1;fill-rule:nonzero;stroke:none"
       d="m 459.35352,131.84375 1.73836,5.56895 17.26081,-1.63882 1.97906,-0.24839 c -1.89192,7.61713 2.44559,40.98428 2.44559,40.98428 l -16.79376,3.07043 10.91017,2.63028 30.15505,0.0297 0.77354,-26.4106 -1.14854,-23.98588 z"
       sodipodi:nodetypes="ccccccccccc" /></clipPath><linearGradient
     inkscape:collect="always"
     xlink:href="#linearGradient88"
     id="linearGradient89"
     x1="446.85593"
     y1="185.27182"
     x2="445.02499"
     y2="144.85001"
     gradientUnits="userSpaceOnUse" /><linearGradient
     inkscape:collect="always"
     xlink:href="#linearGradient90"
     id="linearGradient91"
     x1="446.85593"
     y1="185.27182"
     x2="440.4202"
     y2="140.03113"
     gradientUnits="userSpaceOnUse" /><linearGradient
     inkscape:collect="always"
     xlink:href="#linearGradient92"
     id="linearGradient94"
     x1="549.14984"
     y1="171.29851"
     x2="542.68414"
     y2="126.72626"
     gradientUnits="userSpaceOnUse" /><linearGradient
     inkscape:collect="always"
     xlink:href="#linearGradient97"
     id="linearGradient98"
     x1="486.45386"
     y1="179.96544"
     x2="480.36679"
     y2="132.0235"
     gradientUnits="userSpaceOnUse" /><linearGradient
     inkscape:collect="always"
     xlink:href="#linearGradient99"
     id="linearGradient101"
     x1="386.8125"
     y1="192.00644"
     x2="383.93112"
     y2="146.08185"
     gradientUnits="userSpaceOnUse" /><linearGradient
     inkscape:collect="always"
     xlink:href="#linearGradient102"
     id="linearGradient104"
     x1="401.92789"
     y1="167.76108"
     x2="371.7879"
     y2="173.55029"
     gradientUnits="userSpaceOnUse" /><clipPath
     id="clipPath157"><path
       d="m24.893 40.786v49.698h131.86v-49.698c-43.962-0.34019-87.907-0.0214-131.86 0z"
       style="fill:#ff0000"
       id="path1-1" /></clipPath><clipPath
     id="clipPath157-8"><path
       d="m24.893 40.786v49.698h131.86v-49.698c-43.962-0.34019-87.907-0.0214-131.86 0z"
       style="fill:#ff0000"
       id="path2" /></clipPath><linearGradient
     id="linearGradient61"><stop
       style="stop-color:#0a0c34;stop-opacity:1;"
       offset="0"
       id="stop61" /><stop
       style="stop-color:#1a1e84;stop-opacity:1;"
       offset="1"
       id="stop62" /></linearGradient><linearGradient
     id="linearGradient1"><stop
       style="stop-color:#22de4a;stop-opacity:1;"
       offset="0"
       id="stop1" /><stop
       style="stop-color:#0f6522;stop-opacity:1;"
       offset="1"
       id="stop2" /></linearGradient><pattern
     xlink:href="#pattern6-7-8"
     preserveAspectRatio="xMidYMid"
     id="pattern10-3"
     patternTransform="translate(190,350)" /><pattern
     patternUnits="userSpaceOnUse"
     width="29"
     height="20"
     patternTransform="translate(190,350)"
     preserveAspectRatio="xMidYMid"
     style="fill:#000000"
     id="pattern6-7-8"><path
       style="fill:none;stroke:#000000;stroke-width:10;stroke-linecap:butt;stroke-dasharray:none;paint-order:stroke markers fill;stop-color:#000000"
       d="M 0,5 C 19,5 10,15 29,15"
       id="path4-2-2" /></pattern><clipPath
     id="clipPath157-5"><path
       d="m 24.893,40.786 v 49.698 h 131.86 V 40.786 c -43.962,-0.34019 -87.907,-0.0214 -131.86,0 z"
       style="fill:#ff0000"
       id="path1-9" /></clipPath><clipPath
     id="clipPath157-8-1"><path
       d="m 24.893,40.786 v 49.698 h 131.86 V 40.786 c -43.962,-0.34019 -87.907,-0.0214 -131.86,0 z"
       style="fill:#ff0000"
       id="path2-5" /></clipPath><filter
     style="color-interpolation-filters:sRGB"
     id="filter4"
     x="-0.018638421"
     y="-0.15069442"
     width="1.0372768"
     height="1.3013888"><feGaussianBlur
       stdDeviation="0.89553984"
       id="feGaussianBlur4" /></filter><filter
     style="color-interpolation-filters:sRGB"
     id="filter5"
     x="-0.018369808"
     y="-0.16906163"
     width="1.0367396"
     height="1.3381233"><feGaussianBlur
       stdDeviation="1.4817149"
       id="feGaussianBlur5" /></filter><filter
     style="color-interpolation-filters:sRGB"
     id="filter8"
     x="-0.18471812"
     y="-0.20993583"
     width="1.3694362"
     height="1.4198717"><feGaussianBlur
       stdDeviation="1.4942649"
       id="feGaussianBlur8" /></filter><filter
     style="color-interpolation-filters:sRGB"
     id="filter9"
     x="-0.26114637"
     y="-0.272821"
     width="1.5222927"
     height="1.545642"><feGaussianBlur
       stdDeviation="2.1545212"
       id="feGaussianBlur9" /></filter><filter
     style="color-interpolation-filters:sRGB"
     id="filter9-8"
     x="-0.26114637"
     y="-0.272821"
     width="1.5222927"
     height="1.545642"><feGaussianBlur
       stdDeviation="2.1545212"
       id="feGaussianBlur9-8" /></filter><filter
     style="color-interpolation-filters:sRGB"
     id="filter9-5"
     x="-0.26114637"
     y="-0.272821"
     width="1.5222927"
     height="1.545642"><feGaussianBlur
       stdDeviation="2.1545212"
       id="feGaussianBlur9-6" /></filter><filter
     style="color-interpolation-filters:sRGB"
     id="filter9-2"
     x="-0.26114637"
     y="-0.272821"
     width="1.5222927"
     height="1.545642"><feGaussianBlur
       stdDeviation="2.1545212"
       id="feGaussianBlur9-9" /></filter><filter
     style="color-interpolation-filters:sRGB"
     id="filter9-2-5"
     x="-0.26114637"
     y="-0.272821"
     width="1.5222927"
     height="1.545642"><feGaussianBlur
       stdDeviation="2.1545212"
       id="feGaussianBlur9-9-6" /></filter><radialGradient
     xlink:href="#linearGradient1"
     id="radialGradient2"
     cx="303.992"
     cy="-20.862877"
     fx="303.992"
     fy="-20.862877"
     r="16.181793"
     gradientUnits="userSpaceOnUse"
     gradientTransform="translate(-5.1014418,4.6810837)" /><clipPath
     id="clipPath157-2"><path
       d="m 24.893,40.786 v 49.698 h 131.86 V 40.786 c -43.962,-0.34019 -87.907,-0.0214 -131.86,0 z"
       style="fill:#ff0000"
       id="path1-9-6" /></clipPath><clipPath
     id="clipPath157-8-3"><path
       d="m 24.893,40.786 v 49.698 h 131.86 V 40.786 c -43.962,-0.34019 -87.907,-0.0214 -131.86,0 z"
       style="fill:#ff0000"
       id="path2-5-6" /></clipPath><filter
     style="color-interpolation-filters:sRGB"
     id="filter22"
     x="-0.060728335"
     y="-0.12720732"
     width="1.1214567"
     height="1.2544146"><feGaussianBlur
       stdDeviation="0.79713268"
       id="feGaussianBlur22" /></filter><linearGradient
     xlink:href="#linearGradient61"
     id="linearGradient62"
     x1="14.767066"
     y1="194.7247"
     x2="215.50017"
     y2="75.384079"
     gradientUnits="userSpaceOnUse"
     gradientTransform="translate(-5.1014418,-4.6810837)" /></defs>

<style
   type="text/css"
   id="style1">
g.prefab path {
  vector-effect:non-scaling-stroke;
  -inkscape-stroke:hairline;
  fill: none;
  fill-opacity: 1;
  stroke-opacity: 1;
  stroke: #00349c;
}
</style>

<rect
   style="fill:#3d3d3d;fill-opacity:1;stroke:url(#pattern10);stroke-width:0;stroke-opacity:1;paint-order:stroke fill markers"
   id="rect133"
   width="315.07236"
   height="190.04362"
   x="0"
   y="0" /><g
   id="g104"
   transform="matrix(0.77611507,0,0,0.77611507,-256.04843,40.616783)"><path
     style="fill:#171717;fill-opacity:1;stroke:#000000;stroke-width:0;stroke-linecap:round;stroke-linejoin:round;stroke-dasharray:none"
     d="M 463.85956,7.3347788 422.18845,29.561134 420.875,24.125 c 0,0 2.87439,-14.6573071 7.875,-19.625 13.78386,-13.6931375 35.5515,-2.2917454 35.10956,2.8347788 z"
     id="path23"
     sodipodi:nodetypes="cccsc" /><path
     style="fill:none;fill-opacity:0.974212;stroke:#8b8b8b;stroke-width:1;stroke-linecap:round;stroke-linejoin:round;stroke-dasharray:none;stroke-opacity:1"
     d="M 449.55295,109.94746 C 470.85454,118.43274 486.625,134.25 486.625,134.25"
     id="path28"
     sodipodi:nodetypes="cc" /><path
     style="display:inline;fill:#061e65;fill-opacity:1;stroke:#000000;stroke-width:0;stroke-linecap:round;stroke-linejoin:round;stroke-dasharray:none"
     d="m 375.43914,153.18831 c 0,0 -2.91595,-44.85063 -1.58278,-48.62794 L 372.678,51.84812 409.07325,33.886308 c 0,0 7.72607,-9.931858 8.3018,-9.117606 1.78081,2.518595 5.15295,14.770495 5.15295,14.770495 0,0 3.58615,23.428991 15.14028,24.095576 0,0 4.33494,0.01962 20.16633,-7.70165 12.8873,15.331448 25.40773,25.2479 69.40231,59.243717 l -13.78342,10.8298 C 497.23327,119.34079 445.56381,87.26419 445.56381,87.26419 436.23163,97.70735 437.16877,141.9 437.16877,141.9 Z"
     id="path17"
     sodipodi:nodetypes="ccccscccccccc" /><path
     style="fill:#deaa87;fill-opacity:1;stroke:#000000;stroke-width:0;stroke-linecap:round;stroke-linejoin:round;stroke-dasharray:none"
     d="m 418.07688,28.284271 3.00521,-3.270369 1.41421,4.772971 v 8.750446 z"
     id="path24" /><path
     style="fill:#061e65;fill-opacity:1;stroke:none;stroke-width:1;stroke-linecap:round;stroke-linejoin:round;stroke-dasharray:none;stroke-opacity:1"
     d="m 421.08209,25.013902 -3.00521,3.270369 -0.84931,-3.557982 c 0,0 2.90126,-0.130931 3.85452,0.287613 z"
     id="path30"
     sodipodi:nodetypes="cccc" /><path
     style="fill:#041955;fill-opacity:1;stroke:none;stroke-width:1;stroke-linecap:round;stroke-linejoin:round;stroke-dasharray:none;stroke-opacity:1"
     d="m 409.07325,33.886308 c 6.02162,26.105549 22.69357,38.524005 27.56519,40.890234 1.39223,0.676233 10.29455,-10.524192 10.29455,-10.524192 L 417.37505,24.768702 c -1.21534,-0.441942 -8.3018,9.117606 -8.3018,9.117606"
     id="path29"
     sodipodi:nodetypes="csccc" /><path
     style="fill:#818181;fill-opacity:1;stroke:#000000;stroke-width:0;stroke-linecap:round;stroke-linejoin:round;stroke-dasharray:none"
     d="m 421.85516,29.380601 c 0.16665,12.720658 3.14231,23.095981 3.14231,23.095981 7.58082,21.839057 21.93552,11.775768 21.93552,11.775768 3.92595,-2.492474 14.35816,-9.403922 14.35816,-9.403922 l 0.3928,-4.650021 c 0,0 14.76727,-14.545842 15.16164,-15.947225 0.49468,-1.75783 0.16153,-11.744027 0,-13.197703 -0.0911,-0.819845 -4.57695,-14.611378 -4.65772,-14.6117429 0,0 -5.15328,2.2178845 -34.77828,-0.1571155 -9.27664,0.4443898 -15.55443,23.0959804 -15.55443,23.0959804 z"
     id="path18"
     sodipodi:nodetypes="cccccssscc" /><path
     style="fill:#a1a1a1;fill-opacity:0.627507;stroke:#000000;stroke-width:0;stroke-linecap:round;stroke-linejoin:round;stroke-dasharray:none"
     d="m 461.68395,50.198407 c -6.0077,1.790897 -13.98329,0.942693 -13.98329,0.942693 l 0.0786,3.770773 c 3.3607,4.13838 13.51193,-0.06345 13.51193,-0.06345"
     id="path20"
     sodipodi:nodetypes="cccc" /><path
     style="fill:#777777;fill-opacity:1;stroke:#000000;stroke-width:0;stroke-linecap:round;stroke-linejoin:round;stroke-dasharray:none"
     d="m 437.40959,6.2846206 c 4.01667,0 2.25086,21.1423144 16.69353,30.5855974 l -7.80135,10.60726 1.34293,3.650161 0.18947,4.010147 c 0,0 -7.61314,6.804405 -11.44582,7.197795 -1.41537,0.145274 -4.12429,-1.099809 -4.12429,-1.099809 -6.20798,-1.768309 -10.07561,-31.674638 -10.07561,-31.674638 0,0 5.95064,-23.2765134 15.22114,-23.2765134 z"
     id="path21"
     sodipodi:nodetypes="sccccsccs" /><path
     style="fill:#383838;fill-opacity:0.627507;stroke:#000000;stroke-width:0;stroke-linecap:round;stroke-linejoin:round;stroke-dasharray:none"
     d="m 473.10978,36.812429 -17.41625,0.523549 -6.21627,8.58614 15.94352,-0.869239 z"
     id="path19"
     sodipodi:nodetypes="ccccc" /><path
     style="fill:#777777;fill-opacity:1;stroke:#000000;stroke-width:0;stroke-linecap:round;stroke-linejoin:round;stroke-dasharray:none"
     d="m 449.49679,43.118803 c -3.62605,-0.231319 -3.67001,7.828695 -3.67001,7.828695 11.47081,1.222072 16.09948,-0.988214 16.09948,-0.988214 l 5.01586,-5.005822 -17.46486,0.968651 c -0.85182,0.04724 -0.35984,-2.103933 0.0195,-2.80331 z"
     id="path22"
     sodipodi:nodetypes="ccccsc" /><path
     style="fill:none;fill-opacity:1;stroke:#000000;stroke-width:0.6;stroke-linecap:round;stroke-linejoin:round;stroke-dasharray:none;stroke-opacity:1;filter:url(#filter37)"
     d="m 373.86741,104.89774 14.59854,5.64963 c -2.25,3.625 21.47921,3.65037 21.47921,3.65037 1.5468,3.49134 6.04073,5.53002 6.04073,5.53002 1.55202,0.43862 4.2826,1.8721 5.12051,-1.10445 0.70711,2.41621 6.91484,3.9719 8.90358,-0.5801 1.19324,1.59099 5.54173,1.1186 5.54173,1.1186 1.67938,-0.39775 2.80943,-2.07212 2.32329,-2.91181 0,0 10.87816,8.42814 7.50316,-2.69686 -8.875,-11.875 -11.67869,-18.984336 -49.92869,-27.109336 L 380.9375,83.4375"
     id="path37"
     sodipodi:nodetypes="ccccccccccc" /><path
     style="fill:#061e65;fill-opacity:1;stroke:#3d3d3d;stroke-width:0;stroke-linecap:round;stroke-linejoin:round;stroke-dasharray:none;stroke-opacity:1"
     d="m 394.5,86.625 -13.5625,-3.1875 c 0,0 -1.82991,-1.21976 0.2864,-3.165486 C 400.02199,62.989176 389.75388,41.241211 370.5,52.5 c -42.46558,32.963327 -34.81209,47.248487 3.36741,52.39774 4.9642,0.66952 14.59854,5.64963 14.59854,5.64963 z"
     id="path25"
     sodipodi:nodetypes="ccscscc" /><path
     style="fill:#c46f36;fill-opacity:1;stroke:#000000;stroke-width:0;stroke-linecap:round;stroke-linejoin:round;stroke-dasharray:none"
     d="m 395.44947,86.443804 c -8.26046,-2.701758 -10.42982,22.008696 -5.65685,26.162946 l 20.15254,1.59099 c 0,0 1.92527,3.21446 6.04073,5.53002 0.91167,0.51295 4.61006,1.54106 5.14039,-1.19898 -0.53033,1.45841 6.8501,5.08232 8.88303,-0.48614 0.7513,1.41421 7.42375,2.80355 7.86569,-1.79264 l 3.93415,2.45555 c 5.6875,1.9375 4.30843,-3.95553 3.56901,-5.15241 -12.76057,-20.655093 -33.3019,-21.671193 -49.92869,-27.109336 z"
     id="path26"
     sodipodi:nodetypes="sccsccccss" /><path
     style="fill:#4f4f4f;fill-opacity:0.97421199;stroke:#000000;stroke-width:0;stroke-linecap:round;stroke-linejoin:round;stroke-dasharray:none"
     d="m 443.7095,111.19254 4.5962,0.17678 c 2.60746,-3.69021 4.07597,-1.37373 5.03813,-3.09359 0.75464,-1.34893 1.14889,-3.603 0,-4.637 -0.625,-0.5625 -16.17506,0 -16.17506,0 z"
     id="path27"
     sodipodi:nodetypes="ccsscc" /><g
     id="path31"><path
       style="color:#000000;fill:#c46f36;stroke-linecap:round;stroke-linejoin:round;-inkscape-stroke:none"
       d="m 421.12628,118.52878 c 0,0 0.53315,-3.8846 -4.43869,-8.59128"
       id="path34" /><path
       style="color:#000000;fill:#6d3e1e;stroke-linecap:round;stroke-linejoin:round;-inkscape-stroke:none"
       d="m 416.68555,109.83789 c -0.0267,6.1e-4 -0.052,0.0118 -0.0703,0.0312 -0.0374,0.04 -0.0357,0.10278 0.004,0.14063 2.47465,2.34266 3.57354,4.47434 4.05664,6.01757 0.48311,1.54324 0.43051,2.59602 0.43051,2.59602 -0.007,0.0544 0.25414,-1.0789 -0.23914,-2.65463 -0.49328,-1.57573 -1.61414,-3.73951 -4.11133,-6.10352 -0.019,-0.0179 -0.0442,-0.0277 -0.0703,-0.0273 z"
       id="path35"
       sodipodi:nodetypes="sccscssss" /></g><path
     style="color:#000000;fill:#6d3e1e;stroke-linecap:round;stroke-linejoin:round;-inkscape-stroke:none"
     d="m 421.30859,106.07813 c -0.0419,-0.0372 -0.10625,-0.0327 -0.14257,0.01 -0.0359,0.0416 -0.0314,0.10448 0.01,0.14063 4.21143,3.6499 6.39685,6.61387 7.52734,8.66015 0.56525,1.02314 0.96129,1.54492 1.09766,2.0879 0,0 0.19724,0.33203 0.20896,1.0664 0.004,0.0542 0.15122,-0.32271 -0.0137,-0.87304 -0.16484,-0.55034 -0.54729,-1.34383 -1.11914,-2.37891 -1.14369,-2.07017 -3.34229,-5.05031 -7.56836,-8.71289 z"
     id="path32"
     sodipodi:nodetypes="sccsscssss" /><path
     style="color:#000000;fill:#6d3e1e;stroke-linecap:round;stroke-linejoin:round;-inkscape-stroke:none"
     d="m 426.55469,103.30469 c -0.0464,-0.0303 -0.10854,-0.0172 -0.13867,0.0293 -0.0303,0.0464 -0.0172,0.10855 0.0293,0.13868 8.03524,5.16995 11.42967,12.77732 11.42967,12.77732 -0.15019,-1.04707 -3.23058,-7.7403 -11.32033,-12.94533 z"
     id="path33"
     sodipodi:nodetypes="scccss" /><path
     style="fill:#000000;fill-opacity:0.65616;stroke:none;stroke-width:0.4;stroke-linecap:round;stroke-linejoin:round;stroke-dasharray:none;stroke-opacity:1;filter:url(#filter36)"
     d="m 392.78635,86.237942 c 0,0 -15.0768,0 -16.09955,-1.812815 -3.29219,-5.835389 12.80744,-15.491351 12.80744,-15.491351 -2.80699,8.326048 -11.29678,11.852074 -8.55674,14.503724 z"
     id="path36"
     sodipodi:nodetypes="csccc" /><g
     id="g102"><path
       style="display:inline;fill:#c46f36;fill-opacity:1;stroke:#f99900;stroke-width:2.7;stroke-linecap:round;stroke-linejoin:round;stroke-dasharray:none;stroke-opacity:1"
       d="m 455.375,143.5 -9,-0.25"
       id="path8" /><path
       style="display:inline;fill:url(#linearGradient94);stroke:#f99900;stroke-width:0;stroke-linecap:round;stroke-linejoin:round;stroke-dasharray:none;stroke-opacity:1"
       d="m 481.375,131.84325 101.28099,-8.45312 c 26.5769,2.01256 24.62132,41.22819 0.53033,43.3103 l -96.85763,13.08475 C 511.75116,166.15758 507.375,134.75 481.375,131.84325 Z"
       id="path73"
       sodipodi:nodetypes="ccccc" /><path
       style="display:inline;fill:url(#linearGradient91);stroke:url(#linearGradient89);stroke-width:0;stroke-linecap:round;stroke-linejoin:round;stroke-dasharray:none;stroke-opacity:1"
       d="m 479.73592,135.59362 -92.92342,10.48814 c 18.11861,5.10304 25.03337,31.03039 3.49303,45.92468 l 95.8351,-15.77206 c 27.375,-3.5 21.50104,-46.66039 -6.40471,-40.64076 z"
       id="path74"
       sodipodi:nodetypes="ccccc" /><path
       style="color:#000000;fill:url(#linearGradient98);fill-opacity:1;stroke:none;stroke-linecap:round;stroke-linejoin:round;-inkscape-stroke:none"
       d="m 482.77734,131.84375 c -31.23076,0 -31.23406,48.14648 0,48.14648 13.18484,0 25.045,-10.89313 25.045,-24.16065 0,-13.26752 -11.86016,-23.98583 -25.045,-23.98583 z m 0.2304,3.47184 c 11.28851,0 20.18562,9.20129 20.18562,20.60238 0,11.40109 -9.12751,20.5918 -20.41602,20.5918 -3.42786,0 -9.41677,1.76505 -9.41677,1.76505 0,0 -13.63415,-42.95923 9.64717,-42.95923 z"
       id="path72"
       sodipodi:nodetypes="ssssssscs"
       clip-path="url(#clipPath87)"
       transform="matrix(0.81380441,0,0,1,90.450391,-0.18025537)" /><ellipse
       style="fill:url(#linearGradient104);fill-opacity:1;stroke:url(#linearGradient101);stroke-width:2.688;stroke-linecap:round;stroke-linejoin:round;stroke-dasharray:none;stroke-opacity:1"
       id="path71"
       cx="386.8125"
       cy="169.17529"
       rx="16.774609"
       ry="21.749449" /></g><g
     id="g70"
     style="display:inline"><path
       style="display:inline;fill:#c46f36;fill-opacity:1;stroke:#000000;stroke-width:0;stroke-linecap:round;stroke-linejoin:round;stroke-dasharray:none"
       d="m 512.15625,126.90625 c 0,0 10.88015,4.34851 15.34376,10.09375 2.34229,1.63518 5.22541,1.07636 3.78791,-1.86114 -1.51998,-3.10604 -4.65786,-9.09656 7.83709,-4.51386 2.9375,1.28125 8.375,4.125 8.375,4.125 3.6875,2.8125 5.375,-1.90625 3.375,-3 4.4375,3.40625 4.18149,-1.71718 2.75,-2.25 2.3282,1.1862 2.61481,-1.13696 2.08709,-1.55898 -2.53848,-2.48029 -3.99728,-3.04367 -6.50628,-4.08525 -4.26945,-0.60003 -6.69214,-1.28455 -9.73706,-2.73077 -4.31517,-2.04954 -11.71875,-8.25 -11.71875,-8.25 -2.78125,-2.6875 -18.32032,12.8125 -15.59376,14.03125 z"
       id="path1"
       sodipodi:nodetypes="ccsccccccacc" /><path
       style="color:#000000;fill:#6d3e1e;stroke-linecap:round;stroke-linejoin:round;-inkscape-stroke:none"
       d="m 542.45402,126.93049 c -0.0223,0.0148 -0.0376,0.0378 -0.0427,0.0639 -0.0102,0.0538 0.025,0.10591 0.0786,0.11671 3.34376,0.65673 5.41206,1.87069 6.64538,2.91657 1.23333,1.04589 1.98667,1.88044 1.98667,1.88044 0.0231,0.0497 -0.59696,-0.96438 -1.85628,-2.03228 -1.25929,-1.06791 -3.36334,-2.29725 -6.73755,-2.95997 -0.0257,-0.005 -0.0522,-2.5e-4 -0.074,0.0141 z"
       id="path35-0"
       sodipodi:nodetypes="sccscssss" /><path
       style="color:#000000;fill:#6d3e1e;stroke-linecap:round;stroke-linejoin:round;-inkscape-stroke:none"
       d="m 545.32609,124.80079 c -0.0223,0.0148 -0.0376,0.0378 -0.0427,0.0639 -0.0102,0.0538 0.025,0.10591 0.0786,0.11671 3.34376,0.65673 5.41206,1.87069 6.64538,2.91657 1.23333,1.04589 1.98667,1.88044 1.98667,1.88044 0.0231,0.0497 -0.59696,-0.96438 -1.85628,-2.03228 -1.25929,-1.06791 -3.36334,-2.29725 -6.73755,-2.95997 -0.0257,-0.005 -0.0522,-2.5e-4 -0.074,0.0141 z"
       id="path35-0-1"
       sodipodi:nodetypes="sccscssss" /><path
       style="fill:#c46f36;fill-opacity:1;stroke:#f99900;stroke-width:2.7;stroke-linecap:round;stroke-linejoin:round;stroke-dasharray:none;stroke-opacity:1"
       d="m 471.75,139.25 -10,0.75"
       id="path7" /><path
       style="fill:#c46f36;fill-opacity:1;stroke:#f99900;stroke-width:2.7;stroke-linecap:round;stroke-linejoin:round;stroke-dasharray:none;stroke-opacity:1"
       d="m 468.75,128.25 -6.5,-1.5"
       id="path9" /><path
       style="fill:#c46f36;fill-opacity:1;stroke:#f99900;stroke-width:2.7;stroke-linecap:round;stroke-linejoin:round;stroke-dasharray:none;stroke-opacity:1"
       d="m 472.75,114.875 -6.625,-6.25"
       id="path10" /><path
       style="fill:#c46f36;fill-opacity:1;stroke:#f99900;stroke-width:2.7;stroke-linecap:round;stroke-linejoin:round;stroke-dasharray:none;stroke-opacity:1"
       d="M 484.625,134.375 481,115.5"
       id="path11" /><path
       style="fill:#c46f36;fill-opacity:1;stroke:#f99900;stroke-width:2.7;stroke-linecap:round;stroke-linejoin:round;stroke-dasharray:none;stroke-opacity:1"
       d="M 488.5,134.375 488,120.125"
       id="path12" /><path
       style="fill:none;fill-opacity:1;stroke:#f99900;stroke-width:2.7;stroke-linecap:round;stroke-linejoin:round;stroke-dasharray:none;stroke-opacity:1"
       d="m 479,144.125 7.25,-8.625 -8.375,-0.75"
       id="path13" /><path
       style="fill:none;fill-opacity:1;stroke:#f99900;stroke-width:2.7;stroke-linecap:round;stroke-linejoin:round;stroke-dasharray:none;stroke-opacity:1"
       d="m 486,135.5 v 11"
       id="path14" /><path
       style="fill:none;fill-opacity:1;stroke:#f99900;stroke-width:2.7;stroke-linecap:round;stroke-linejoin:round;stroke-dasharray:none;stroke-opacity:1"
       d="M 505.875,162.625 488,134.875 l 37.50001,18.5"
       id="path15" /><path
       style="fill:none;fill-opacity:1;stroke:#f99900;stroke-width:2.7;stroke-linecap:round;stroke-linejoin:round;stroke-dasharray:none;stroke-opacity:1"
       d="M 517.875,134.75 488.25,135 542,113.25"
       id="path16" /><path
       style="fill:none;fill-opacity:1;stroke:#f99900;stroke-width:2.7;stroke-linecap:round;stroke-linejoin:round;stroke-dasharray:none;stroke-opacity:1"
       d="m 489.25,135.75 64,-37.249999"
       id="path38" /><path
       style="fill:none;fill-opacity:1;stroke:#f99900;stroke-width:2.7;stroke-linecap:round;stroke-linejoin:round;stroke-dasharray:none;stroke-opacity:1"
       d="m 489.25,134.5 48,-38.999999"
       id="path39" /><path
       style="fill:none;fill-opacity:1;stroke:#f99900;stroke-width:2.7;stroke-linecap:round;stroke-linejoin:round;stroke-dasharray:none;stroke-opacity:1"
       d="M 497.75,123.5 487.25,135"
       id="path40" /><path
       style="fill:none;fill-opacity:1;stroke:#f99900;stroke-width:2.7;stroke-linecap:round;stroke-linejoin:round;stroke-dasharray:none;stroke-opacity:1"
       d="M 503.5,102 487,135.25"
       id="path41" /><path
       style="fill:none;fill-opacity:1;stroke:#f99900;stroke-width:2.7;stroke-linecap:round;stroke-linejoin:round;stroke-dasharray:none;stroke-opacity:1"
       d="M 493.75,95.500001 487.5,136"
       id="path42" /><path
       style="fill:none;fill-opacity:1;stroke:#f99900;stroke-width:2.7;stroke-linecap:round;stroke-linejoin:round;stroke-dasharray:none;stroke-opacity:1"
       d="M 500.25,78.750001 490.75,131.75"
       id="path43" /><path
       style="fill:none;fill-opacity:1;stroke:#f99900;stroke-width:2.7;stroke-linecap:round;stroke-linejoin:round;stroke-dasharray:none;stroke-opacity:1"
       d="M 488.5,78.250001 486.75,135"
       id="path44" /><path
       style="fill:none;fill-opacity:1;stroke:#f99900;stroke-width:2.7;stroke-linecap:round;stroke-linejoin:round;stroke-dasharray:none;stroke-opacity:1"
       d="M 488.75,161.75 489.5,151.5"
       id="path45" /><path
       style="fill:none;fill-opacity:1;stroke:#f99900;stroke-width:2.7;stroke-linecap:round;stroke-linejoin:round;stroke-dasharray:none;stroke-opacity:1"
       d="m 476.75,155.5 -8.25,14.75"
       id="path46" /><path
       style="fill:none;fill-opacity:1;stroke:#f99900;stroke-width:2.7;stroke-linecap:round;stroke-linejoin:round;stroke-dasharray:none;stroke-opacity:1"
       d="m 476.75,147.75 -6,7.25"
       id="path47" /><path
       style="fill:none;fill-opacity:1;stroke:#f99900;stroke-width:2.7;stroke-linecap:round;stroke-linejoin:round;stroke-dasharray:none;stroke-opacity:1"
       d="M 501.5,151 530,175.5"
       id="path48" /><path
       style="fill:none;fill-opacity:1;stroke:#f99900;stroke-width:2.7;stroke-linecap:round;stroke-linejoin:round;stroke-dasharray:none;stroke-opacity:1"
       d="m 534.5,178.25 6.5,5"
       id="path49" /><path
       style="fill:none;fill-opacity:1;stroke:#f99900;stroke-width:2.7;stroke-linecap:round;stroke-linejoin:round;stroke-dasharray:none;stroke-opacity:1"
       d="m 518.5,157.25 9.75,6"
       id="path50" /><path
       style="fill:none;fill-opacity:1;stroke:#f99900;stroke-width:2.7;stroke-linecap:round;stroke-linejoin:round;stroke-dasharray:none;stroke-opacity:1"
       d="m 532.75,156 16,6.75"
       id="path51" /><path
       style="fill:none;fill-opacity:1;stroke:#f99900;stroke-width:2.7;stroke-linecap:round;stroke-linejoin:round;stroke-dasharray:none;stroke-opacity:1"
       d="m 553,164.25 8.75001,3.5"
       id="path52" /><path
       style="fill:none;fill-opacity:1;stroke:#f99900;stroke-width:2.7;stroke-linecap:round;stroke-linejoin:round;stroke-dasharray:none;stroke-opacity:1"
       d="m 543.5,154.5 8,0.5"
       id="path53" /><path
       style="fill:none;fill-opacity:1;stroke:#f99900;stroke-width:2.7;stroke-linecap:round;stroke-linejoin:round;stroke-dasharray:none;stroke-opacity:1"
       d="m 562.75001,152.25 8.25,0.5"
       id="path54" /><path
       style="fill:none;fill-opacity:1;stroke:#f99900;stroke-width:2.7;stroke-linecap:round;stroke-linejoin:round;stroke-dasharray:none;stroke-opacity:1"
       d="m 513.25,141.25 41.75001,7.5"
       id="path55" /><path
       style="fill:none;fill-opacity:1;stroke:#f99900;stroke-width:2.7;stroke-linecap:round;stroke-linejoin:round;stroke-dasharray:none;stroke-opacity:1"
       d="m 520.75,138.25 10,2.5"
       id="path56" /><path
       style="fill:none;fill-opacity:1;stroke:#f99900;stroke-width:2.7;stroke-linecap:round;stroke-linejoin:round;stroke-dasharray:none;stroke-opacity:1"
       d="m 532,136.25 26.25001,1.5"
       id="path57" /><path
       style="fill:none;fill-opacity:1;stroke:#f99900;stroke-width:2.7;stroke-linecap:round;stroke-linejoin:round;stroke-dasharray:none;stroke-opacity:1"
       d="m 563.75001,138.25 13.5,0.75"
       id="path58" /><path
       style="fill:none;fill-opacity:1;stroke:#f99900;stroke-width:2.7;stroke-linecap:round;stroke-linejoin:round;stroke-dasharray:none;stroke-opacity:1"
       d="M 568.25001,115 534.75,123.25"
       id="path59" /><path
       style="fill:none;fill-opacity:1;stroke:#f99900;stroke-width:2.7;stroke-linecap:round;stroke-linejoin:round;stroke-dasharray:none;stroke-opacity:1"
       d="m 573.00001,88.250001 -13.25,7.75"
       id="path60" /><path
       style="fill:none;fill-opacity:1;stroke:#f99900;stroke-width:2.7;stroke-linecap:round;stroke-linejoin:round;stroke-dasharray:none;stroke-opacity:1"
       d="m 581.75001,81.750001 -6.75,4.25"
       id="path61" /><path
       style="fill:none;fill-opacity:1;stroke:#f99900;stroke-width:2.7;stroke-linecap:round;stroke-linejoin:round;stroke-dasharray:none;stroke-opacity:1"
       d="m 552,86.750001 -6,5.5"
       id="path62" /><path
       style="fill:none;fill-opacity:1;stroke:#f99900;stroke-width:2.7;stroke-linecap:round;stroke-linejoin:round;stroke-dasharray:none;stroke-opacity:1"
       d="m 549.25,71.500001 -7,6.25"
       id="path63" /><path
       style="fill:none;fill-opacity:1;stroke:#f99900;stroke-width:2.7;stroke-linecap:round;stroke-linejoin:round;stroke-dasharray:none;stroke-opacity:1"
       d="m 538.5,82.000001 -9.5,9.75"
       id="path64" /><path
       style="fill:none;fill-opacity:1;stroke:#f99900;stroke-width:2.7;stroke-linecap:round;stroke-linejoin:round;stroke-dasharray:none;stroke-opacity:1"
       d="M 525.25,95.250001 512.75,108.25"
       id="path65" /><path
       style="fill:none;fill-opacity:1;stroke:#f99900;stroke-width:2.7;stroke-linecap:round;stroke-linejoin:round;stroke-dasharray:none;stroke-opacity:1"
       d="m 515,82.250001 -7.25,13.25"
       id="path66" /><path
       style="fill:none;fill-opacity:1;stroke:#f99900;stroke-width:2.7;stroke-linecap:round;stroke-linejoin:round;stroke-dasharray:none;stroke-opacity:1"
       d="m 520.25,74.000001 -3.75,5.75"
       id="path67" /><path
       style="fill:none;fill-opacity:1;stroke:#f99900;stroke-width:2.7;stroke-linecap:round;stroke-linejoin:round;stroke-dasharray:none;stroke-opacity:1"
       d="m 514.5,69.250001 -11.5,20"
       id="path68" /><path
       style="fill:none;fill-opacity:1;stroke:#f99900;stroke-width:2.7;stroke-linecap:round;stroke-linejoin:round;stroke-dasharray:none;stroke-opacity:1"
       d="M 463.75,179.5 468,174.25"
       id="path69" /><path
       style="fill:none;fill-opacity:1;stroke:#f99900;stroke-width:2.7;stroke-linecap:round;stroke-linejoin:round;stroke-dasharray:none;stroke-opacity:1"
       d="m 486.5,137 8.5,26"
       id="path70" /></g></g><g
   transform="matrix(1.9125804,0,0,1.8072679,-59.83593,-76.30039)"
   id="g6"><path
     transform="matrix(0.23739,0,0,0.27972,28.767,35.209)"
     d="m 111,45.711 c -1,0.04892 -1.9927,0.24593 -2.9939,0.24263 -0.33037,-0.0011 -0.67913,0.03241 -0.98734,-0.08658 -0.24413,-0.09425 -0.44103,-0.2889 -0.62525,-0.47476 -0.26204,-0.26437 -0.4551,-0.58955 -0.6674,-0.8953 -0.18295,-0.26349 -0.35783,-0.53286 -0.52193,-0.80848 -0.12879,-0.21631 -0.23929,-0.44302 -0.36261,-0.66249 -0.11928,-0.21227 -0.24505,-0.42084 -0.36491,-0.63278 -0.0958,-0.1693 -0.17802,-0.34654 -0.28296,-0.5103 -0.14633,-0.22835 -0.26188,-0.49682 -0.48163,-0.65577 -0.17447,-0.1262 -0.40112,-0.16902 -0.61417,-0.20022 -0.23544,-0.03448 -0.47622,0.0016 -0.71364,0.01737 -0.31908,0.02126 -0.6368,0.06124 -0.9537,0.10411 -0.68314,0.09242 -1.3644,0.20103 -2.0416,0.32988 -0.53437,0.10168 -1.065,0.2228 -1.594,0.34952 -0.25014,0.05992 -0.49901,0.12526 -0.74682,0.19419 -0.14246,0.03963 -0.29591,0.05452 -0.4253,0.12609 -0.13543,0.07491 -0.25499,0.18352 -0.34836,0.30695 -0.09543,0.12615 -0.16494,0.27493 -0.20502,0.42795 -0.09243,0.35292 -0.07165,1.0921 -0.07165,1.0921 l 0.05452,5.3265 0.0031,5.0074 c 0,0 0.0094,0.29332 0.01834,0.43977 0.0072,0.11757 -0.0084,0.24038 0.02856,0.35222 0.02474,0.07479 0.06422,0.15051 0.12511,0.20049 0.06492,0.05328 0.17434,0.08785 0.23566,0.08915 l 0.42069,0.0089 h 0.9493 c 0.22868,0 0.20021,0.008 0.29767,-0.01099 0.0748,-0.01457 0.15223,-0.03461 0.21492,-0.07794 0.07022,-0.04854 0.13386,-0.1156 0.16674,-0.19439 0.084,-0.20133 0.04026,-0.43451 0.05333,-0.65227 0.01273,-0.21214 -2.3e-4,-0.42602 0.02441,-0.63711 0.0187,-0.16022 0.04603,-0.32063 0.09335,-0.47484 0.08257,-0.26908 0.19263,-0.53154 0.32988,-0.77728 0.17898,-0.32045 0.41629,-0.60493 0.63743,-0.89788 0.30136,-0.39923 0.93873,-1.1707 0.93873,-1.1707 l 1.2557,-1.3092 c 0,0 0.77193,-0.76581 1.2043,-1.0927 0.38782,-0.29319 0.77892,-0.61033 1.2374,-0.77205 0.21375,-0.0754 0.44844,-0.0858 0.67506,-0.08165 0.22366,0.0041 0.44876,0.04003 0.66284,0.10491 0.14718,0.0446 0.28456,0.11842 0.41907,0.19298 0.1339,0.07422 0.43916,0.29453 0.61343,0.48967 0.15446,0.17296 0.30415,0.5904 0.3771,0.9108 0.12017,0.52777 0.0747,1.0803 0.0896,1.6214 0.0146,0.53017 0,1.5911 0,1.5911 0,0.17945 0.038,0.27056 0.098,0.39067 0.0448,0.08962 0.10895,0.17352 0.18914,0.23358 0.0841,0.06299 0.18948,0.09405 0.29094,0.12144 0.8089,0.21834 1.6539,0.33646 2.4917,0.33045 0.81787,-0.0059 1.6624,-0.06851 2.4275,-0.35745 0.1665,-0.06288 0.34108,-0.14837 0.44781,-0.29081 0.0875,-0.1168 0.10138,-0.27552 0.12575,-0.41943 0.022,-0.1298 0.0253,-0.26313 0.0175,-0.39454 -0.0251,-0.42426 -0.12713,-0.84065 -0.2064,-1.2582 -0.0962,-0.50651 -0.24779,-1.0023 -0.32644,-1.5118 -0.0403,-0.26108 -0.0994,-0.52608 -0.0741,-0.78904 0.0188,-0.19556 0.0711,-0.3935 0.166,-0.56554 0.0928,-0.16822 0.23279,-0.31022 0.38108,-0.43233 0.17784,-0.14645 0.38222,-0.26447 0.59649,-0.34908 0.2149,-0.08486 0.44708,-0.12193 0.67601,-0.15308 0.16532,-0.02249 0.33378,-0.03866 0.49997,-0.0239 0.1741,0.01546 0.34529,0.06176 0.51114,0.11693 0.33315,0.11082 0.65579,0.25676 0.96289,0.42695 0.50418,0.27941 0.96627,0.62975 1.4324,0.96891 0.33015,0.24023 0.64844,0.49652 0.96513,0.75422 0.35431,0.28831 0.70194,0.58489 1.0457,0.88573 0.4563,0.39936 0.90983,0.80229 1.3493,1.2201 0.28868,0.27442 0.60044,0.53041 0.84525,0.8446 0.15165,0.19463 0.30282,0.40105 0.37932,0.63562 0.0903,0.2768 0.0778,0.57858 0.0806,0.86972 0.002,0.21675 -0.0476,0.43178 -0.0476,0.64854 1e-5,0.05009 -7.8e-4,0.10118 0.011,0.14986 0.0184,0.07603 0.0506,0.14944 0.0917,0.21601 0.042,0.06801 0.0888,0.1384 0.15529,0.18267 0.13686,0.09108 0.17411,0.11819 0.46997,0.14955 0.29586,0.03135 0.8127,0.06461 1.2142,0.13212 0.75129,0.12633 1.5034,0.27434 2.228,0.50948 1.1884,0.38564 2.3518,0.8703 3.4484,1.4691 0.93168,0.50879 1.8119,1.1184 2.6339,1.7902 0.71421,0.58373 1.3775,1.2348 1.98,1.9332 0.6797,0.78796 1.2896,1.64 1.8296,2.5295 0.41216,0.67896 0.74805,1.403 1.0685,2.1298 0.18079,0.41002 0.33713,0.83096 0.48059,1.2555 0.0842,0.24912 0.15214,0.50348 0.22271,0.7568 0.0391,0.14048 0.066,0.28447 0.11129,0.42308 0.0228,0.06972 0.0397,0.14385 0.0805,0.20479 0.0424,0.06336 0.0993,0.11971 0.16501,0.15842 0.0785,0.04628 0.17111,0.06703 0.2612,0.08084 1.058,0.16217 2.1408,0.0086 3.2112,0.01292 1.0704,0.0043 2.1408,0.0048 3.2112,0.01292 0.3743,0.0028 0.74877,-4.08e-4 1.1228,0.01246 0.30853,0.01061 0.61776,0.01942 0.92459,0.05339 0.22329,0.02472 0.44624,0.05831 0.66505,0.10923 0.25893,0.06025 0.51925,0.12584 0.7632,0.23148 0.28999,0.12557 0.55964,0.2963 0.82139,0.47335 0.18036,0.12199 0.35423,0.25529 0.51337,0.40389 0.0937,0.08754 0.17898,0.18445 0.25807,0.28543 0.10679,0.13633 0.20281,0.28135 0.29069,0.43057 0.0766,0.13013 0.11104,0.28593 0.20546,0.4038 0.0465,0.05811 0.10527,0.10964 0.17217,0.14232 0.0501,0.02446 0.10759,0.03335 0.16325,0.03616 0.0657,0.0033 0.13357,-0.0022 0.19592,-0.02307 0.0679,-0.02275 0.16913,-0.09756 0.18539,-0.10847 l 2.0673,-1.3875 2.1908,-1.3759 c 0,0 0.17328,-0.13962 0.23473,-0.23042 0.074,-0.10936 0.13249,-0.23509 0.15251,-0.36562 0.0261,-0.17039 -0.019,-0.3449 -0.0469,-0.51501 -0.0635,-0.38759 -0.16117,-0.76973 -0.27325,-1.1462 -0.21418,-0.71931 -0.46789,-1.4281 -0.76094,-2.1191 -0.15608,-0.36802 -0.3255,-0.73226 -0.52972,-1.0759 -0.1474,-0.24802 -0.26721,-0.53564 -0.49932,-0.707 -0.17715,-0.13078 -0.40949,-0.17712 -0.62787,-0.20527 -0.4096,-0.0528 -0.79433,0.0057 -1.2368,0.07377 l -2.7084,0.41683 c -0.77099,0.11866 -1.54,0.25405 -2.3153,0.34081 -0.15261,0.01708 -0.30598,0.04342 -0.45932,0.03532 -0.16918,-0.0089 -0.3436,-0.02664 -0.49983,-0.09218 -0.1337,-0.05609 -0.24769,-0.15352 -0.356,-0.2499 -0.0901,-0.08016 -0.1656,-0.17569 -0.24085,-0.26991 -0.14286,-0.17892 -0.2598,-0.37729 -0.3986,-0.55938 -0.22439,-0.29439 -0.46392,-0.57698 -0.70123,-0.86106 -0.19554,-0.23409 -0.39456,-0.46528 -0.59535,-0.69489 -0.16046,-0.18349 -0.32294,-0.36524 -0.48694,-0.54557 -0.17588,-0.19339 -0.37616,-0.36612 -0.53303,-0.57523 -0.14887,-0.19844 -0.31809,-0.3988 -0.38258,-0.63834 -0.0452,-0.16776 -0.0345,-0.35251 0.007,-0.52117 0.0468,-0.18906 0.16061,-0.35632 0.26513,-0.52065 0.34545,-0.54311 0.79348,-1.0137 1.187,-1.5231 0.34955,-0.45242 0.74719,-0.87236 1.043,-1.3616 0.15859,-0.26236 0.33021,-0.53317 0.38655,-0.83452 0.0504,-0.26978 0.0324,-0.56077 -0.0528,-0.82166 -0.0821,-0.25138 -0.26558,-0.45904 -0.42619,-0.66912 -0.13853,-0.1812 -0.29669,-0.34743 -0.46055,-0.50609 -0.65638,-0.63555 -1.3577,-1.2263 -2.0856,-1.7785 -0.81609,-0.61905 -1.5834,-1.3762 -2.5503,-1.7144 -0.1987,-0.0695 -0.42166,-0.08494 -0.62944,-0.05115 -0.23596,0.03837 -0.50221,0.17541 -0.65959,0.28159 -0.15228,0.10275 -0.30003,0.21239 -0.44392,0.3266 -0.27079,0.21494 -0.5288,0.44559 -0.7882,0.67415 -0.30496,0.2687 -0.59194,0.55777 -0.90293,0.81947 -0.24867,0.20926 -0.50369,0.41169 -0.76897,0.59945 -0.25521,0.18063 -0.50726,0.37216 -0.78987,0.50592 -0.19434,0.09198 -0.40163,0.16231 -0.6134,0.19948 -0.20523,0.03602 -0.41795,0.04607 -0.62476,0.02067 -0.15289,-0.01878 -0.30051,-0.07168 -0.44442,-0.12661 -0.3851,-0.14698 -0.742,-0.35926 -1.1126,-0.53975 -0.58413,-0.28449 -1.1618,-0.5825 -1.7511,-0.85619 -0.39636,-0.18409 -0.79723,-0.35849 -1.1998,-0.52844 -0.37318,-0.15752 -1.1267,-0.45519 -1.1267,-0.45519 0,0 -0.47476,-0.1532 -0.67528,-0.2951 -0.16207,-0.11469 -0.3026,-0.26617 -0.40649,-0.43536 -0.10533,-0.17153 -0.17995,-0.36777 -0.2072,-0.56721 -0.0936,-0.68531 0.0951,-1.3803 0.16309,-2.0686 0.0515,-0.52114 0.1773,-1.0364 0.18543,-1.5601 0.003,-0.1614 0.0105,-0.32982 -0.0422,-0.48241 -0.0771,-0.22326 -0.20733,-0.4401 -0.38676,-0.5937 -0.42485,-0.36367 -0.86721,-0.53368 -1.5302,-0.688 -0.66299,-0.15432 -1.1334,-0.28708 -1.699,-0.4179 -1.1276,-0.26079 -2.1851,-0.45757 -3.2898,-0.61162 -0.21623,-0.03015 -0.43392,-0.06862 -0.6521,-0.06101 -0.17132,0.006 -0.34927,0.01742 -0.50746,0.08347 -0.18165,0.07584 -0.40993,0.22778 -0.47788,0.34696 0,0 -0.56928,1.3396 -0.88926,1.9929 -0.17395,0.35514 -0.36235,0.70335 -0.5596,1.0461 -0.20417,0.35477 -0.35737,0.75378 -0.64521,1.0448 -0.14988,0.15154 -0.34432,0.25815 -0.5403,0.34193 -0.18577,0.07941 -0.38721,0.12554 -0.58818,0.14624 -0.35175,0.03622 -0.70646,-0.0366 -1.06,-0.0408 -1.0824,-0.01286 -1.9861,-0.0139 -3.2471,0.04775 z m 4.3726,2.5431 c -0.10089,-0.0044 -0.20206,-0.04209 -0.30182,-0.02639 -0.11784,0.01853 -0.2338,0.06819 -0.32972,0.13911 -0.0885,0.0654 -0.16646,0.15289 -0.21184,0.25311 -0.0398,0.08784 -0.049,0.18956 -0.0442,0.28587 0.0124,0.25191 0.30587,1.3148 0.42618,1.9787 0.10004,0.55202 0.27674,1.1049 0.24556,1.665 -0.007,0.12566 -0.0449,0.25019 -0.0962,0.36509 -0.0934,0.20907 -0.2129,0.41496 -0.37803,0.57361 -0.23078,0.22173 -0.53284,0.35903 -0.82217,0.49584 -0.26427,0.12495 -0.5446,0.21588 -0.82656,0.293 -0.35283,0.09651 -0.7144,0.16212 -1.0769,0.21084 -0.56809,0.07634 -1.142,0.10692 -1.7149,0.12683 -0.61622,0.02142 -1.2352,0.04155 -1.8498,-0.008 -0.32262,-0.02601 -0.64709,-0.06539 -0.95911,-0.15142 -0.28171,-0.07766 -0.55933,-0.18242 -0.81366,-0.32633 -0.22018,-0.12459 -0.42652,-0.27898 -0.60491,-0.45837 -0.17103,-0.17198 -0.32508,-0.3668 -0.43621,-0.58239 -0.0729,-0.14152 -0.11355,-0.29899 -0.14524,-0.45501 -0.0439,-0.21603 -0.051,-0.43831 -0.0606,-0.65854 -0.0156,-0.35738 0.002,-0.71544 0.005,-1.0731 0.004,-0.38892 0.0467,-0.77889 0.017,-1.1667 -0.0108,-0.14072 -0.0175,-0.28672 -0.0706,-0.41745 -0.0439,-0.10788 -0.105,-0.21819 -0.19866,-0.28741 -0.0995,-0.07353 -0.23029,-0.10519 -0.35381,-0.11214 -0.14831,-0.0083 -0.30151,0.02573 -0.43722,0.08613 -0.16183,0.07202 -0.28986,0.20442 -0.42529,0.31858 -0.19593,0.16515 -0.55836,0.52839 -0.55836,0.52839 l -0.93638,1.103 c 0,0 -0.62384,0.72554 -0.91467,1.1051 -0.26004,0.33937 -0.50464,0.69064 -0.74131,1.0467 -0.1221,0.18371 -0.25399,0.36305 -0.34985,0.56172 -0.0964,0.19984 -0.18419,0.40867 -0.22328,0.62708 -0.0304,0.16975 -0.0223,0.3456 -0.006,0.51729 0.0113,0.12045 0.0289,0.24259 0.0716,0.35579 0.0736,0.19529 0.18868,0.37452 0.31239,0.5426 0.32486,0.44141 0.7251,0.82336 1.1166,1.2069 0.68914,0.67517 1.4513,1.2718 2.1644,1.9216 0.55681,0.50743 1.1584,0.97343 1.6506,1.5438 0.10903,0.12637 0.21013,0.26256 0.28474,0.41186 0.077,0.15399 0.13315,0.32043 0.16344,0.48989 0.0611,0.34185 0.0331,1.0413 0.0331,1.0413 v 7.0208 c 0,0 -0.0351,0.80111 0,1.1994 0.003,0.03285 0.008,0.06588 0.0173,0.0974 0.008,0.0254 0.0166,0.05153 0.0326,0.07276 0.022,0.02923 0.0509,0.05495 0.0839,0.07081 0.0383,0.01841 0.0828,0.0204 0.12505,0.02471 0.17443,0.01777 0.52597,0.0042 0.52597,0.0042 h 0.40566 c 0,0 0.0529,-7.72e-4 0.0794,-0.0011 0.0336,-4.16e-4 0.0675,0.0024 0.10093,-0.0011 0.0448,-0.0047 0.0925,-0.0062 0.13252,-0.02684 0.0293,-0.0151 0.0523,-0.04124 0.0722,-0.06753 0.0236,-0.03123 0.0382,-0.06847 0.0538,-0.10439 0.0155,-0.0359 0.0267,-0.07353 0.0392,-0.11059 0.0133,-0.03927 0.0238,-0.07945 0.038,-0.11841 0.0399,-0.11012 0.0757,-0.22296 0.13213,-0.32563 0.11572,-0.21065 0.25383,-0.41207 0.41847,-0.58716 0.10796,-0.11481 0.2344,-0.21302 0.36741,-0.29755 0.0618,-0.03927 0.10998,-0.06541 0.1976,-0.09584 0.0367,-0.01276 0.10162,-0.05222 0.14605,-0.08755 0.0347,-0.02758 0.0702,-0.06162 0.0923,-0.09569 0.0373,-0.05732 0.0373,-0.2017 0.0373,-0.2017 l -0.0175,-2.7297 -0.0245,-1.7958 c 0,0 0.005,-0.41688 0.0538,-0.61789 0.0319,-0.1328 0.076,-0.26762 0.15399,-0.37972 0.0802,-0.11526 0.19074,-0.21175 0.31112,-0.28405 0.15852,-0.09521 0.3424,-0.1447 0.52266,-0.18594 0.16502,-0.03775 0.50488,-0.05476 0.50488,-0.05476 l 2.188,-0.0124 c 0,0 0.26622,-0.01139 0.39584,0.0137 0.14661,0.02838 0.29742,0.06911 0.42116,0.1527 0.12954,0.08751 0.23859,0.2118 0.31291,0.34933 0.0797,0.14742 0.10229,0.3204 0.12944,0.48576 0.0382,0.23285 0.046,0.70642 0.046,0.70642 l 0.005,0.65577 -0.009,1.941 -0.0103,2.6498 c 0,0 -10e-4,0.2343 0.0413,0.34026 0.036,0.08926 0.0939,0.17706 0.17389,0.23054 0.0944,0.06308 0.21737,0.06883 0.32966,0.08551 0.0938,0.01393 0.28417,0.01169 0.28417,0.01169 h 0.79984 c 0.18037,-0.0036 0.35152,-0.003 0.52728,-0.003 h 0.51037 c 0.099,0 0.1952,-0.01763 0.28587,-0.05161 0.061,-0.02285 0.12027,-0.05556 0.16768,-0.10019 0.0473,-0.04453 0.0862,-0.10046 0.10991,-0.16096 0.0429,-0.10959 0.0504,-0.23156 0.0518,-0.34924 l 0.0315,-2.7108 c 0.009,-0.7832 0,-2.3498 0,-2.3498 v -4.6085 c 0,0 -0.006,-0.23607 0.004,-0.35347 0.0106,-0.12285 0.0233,-0.24719 0.0592,-0.36516 0.047,-0.15454 0.11822,-0.30242 0.20209,-0.44048 0.11019,-0.18138 0.26301,-0.33319 1.4702,-2.2029 1.2072,-1.8697 1.3473,-2.1901 1.413,-2.4184 0.0624,-0.21672 0.12874,-0.44048 0.1202,-0.66585 -0.007,-0.18336 -0.0724,-0.36159 -0.13849,-0.53278 -0.0505,-0.13097 -0.11535,-0.25774 -0.19534,-0.3731 -0.23054,-0.33249 -0.15044,-0.22794 -0.80964,-0.90432 -0.65919,-0.67639 -1.921,-1.7061 -1.921,-1.7061 l -1.412,-1.1631 c 0,0 -0.29418,-0.23488 -0.45013,-0.3399 -0.10947,-0.07371 -0.21266,-0.16794 -0.33988,-0.20305 -1e-5,-3e-6 -2e-5,0 -3e-5,0 z"
     clip-path="url(#clipPath157)"
     style="fill:#162c8f"
     id="path3" /><path
     d="m 54.745,57.693 c -0.23648,-0.09267 -0.28448,-0.24197 -0.31405,-0.59881 -0.01904,-0.22988 -0.01738,-0.36084 -0.07846,-0.3667 -0.04318,-0.0049 -0.67836,-0.009 -1.4115,0 h -1.3329 c 0,0 -0.03605,-0.002 -0.06077,-0.02718 -0.02472,-0.02518 -0.02328,-0.05555 -0.02328,-0.05555 v -0.84752 c 0,0 -7.1e-4,-0.02024 0.01573,-0.03837 0.01644,-0.01813 0.03708,-0.01478 0.03708,-0.01478 h 1.3485 c 0.74168,-0.0027 1.3839,0.0065 1.4271,0 0.06076,0.0034 0.06598,-0.1424 0.07846,-0.36958 0.02317,-0.42196 0.26292,-0.63594 0.52341,-0.66698 0.33903,-0.04039 0.49136,0.08999 0.61904,0.16742 0.12769,0.07743 0.20107,0.23866 0.20107,0.23866 h 0.79528 l 0.81388,-0.0029 c 0.12571,-4.73e-4 0.29475,-0.20049 0.3263,-0.22893 0.03156,-0.02843 0.07853,-0.07169 0.12912,-0.09661 0.05059,-0.02492 0.11429,-0.02069 0.11429,-0.02069 l 2.6016,-0.02337 c 2.9646,-0.02663 3.2589,-0.01146 3.5371,0.25351 0,0 0.07324,0.08048 0.1026,0.12665 0.03873,0.06089 0.07334,0.12226 0.09547,0.19584 0.08776,0.29185 0.07671,0.91577 0.07671,0.91577 0,0 0.0079,0.63084 -0.07405,0.92915 -0.02011,0.07321 -0.05789,0.14086 -0.10007,0.20249 -0.02807,0.04102 -0.10008,0.10876 -0.10008,0.10876 -0.28263,0.26938 -0.50703,0.25411 -3.4749,0.25411 h -2.6644 c -0.05007,0 -0.15906,-0.06149 -0.17599,-0.07458 -0.02018,-0.01561 -0.19364,-0.16485 -0.19364,-0.16485 0,0 -0.09204,-0.08213 -0.2001,-0.08213 H 56.5734 l -0.79912,-7.6e-5 c 0,0 -0.07526,0.12738 -0.20097,0.20285 -0.24784,0.14646 -0.58265,0.18066 -0.8284,0.08436 z m 8.0075,-0.38762 c -8e-6,-0.09544 -0.09039,-0.10041 -0.09039,-0.10041 h -3.687 c 0,0 -0.10902,-0.01307 -0.10678,0.10088 0.0021,0.11395 0.10678,0.09993 0.10678,0.09993 h 3.687 c 0,0 0.09039,-0.005 0.09039,-0.10041 z m -7.4799,-0.14797 v -1.8622 c 0,0 0.0043,-0.17501 -0.19647,-0.18223 -0.2008,-0.0072 -0.20552,0.18223 -0.20552,0.18223 v 1.8622 c 0,0 9.35e-4,0.17306 0.19289,0.17625 0.19201,0.0032 0.2091,-0.17625 0.2091,-0.17625 z m 7.5922,-0.92213 c -0.0026,-0.15373 -0.15872,-0.13482 -0.15872,-0.13482 h -3.9382 c 0,0 -0.10482,0.0046 -0.10678,0.12812 -0.0019,0.12354 0.10678,0.13964 0.10678,0.13964 h 3.9382 c 0,0 0.16117,0.02079 0.15872,-0.13294 z m -0.20269,-1.1737 h -3.687 c 0,0 -0.10704,-0.0094 -0.10678,0.0984 2.37e-4,0.10782 0.10678,0.10376 0.10678,0.10376 h 1.8415 l 1.8455,-0.0013 c 0,0 0.08969,-0.0072 0.09038,-0.10241 7.47e-4,-0.09522 -0.09038,-0.0984 -0.09038,-0.0984 z"
     style="fill:#162c8f;stroke-width:0.064842"
     id="path4" /><path
     transform="matrix(0.24381,0,0,0.26607,28.289,36.122)"
     d="m 92.253,40.802 c -0.29964,-9.23e-4 -0.60037,0.011 -0.89917,0.01395 -0.79617,0.0078 -1.5917,0.05614 -2.3859,0.11265 -0.77815,0.05537 -1.5549,0.13444 -2.3301,0.22169 -1.245,0.14012 -2.4875,0.30198 -3.7269,0.48472 -1.4235,0.20988 -2.8479,0.42161 -4.2592,0.70228 -1.1636,0.23141 -2.3148,0.52341 -3.4665,0.80874 -1.1761,0.29138 -2.3528,0.58367 -3.5161,0.92242 -0.97034,0.28258 -2.8872,0.92552 -2.8872,0.92552 l -2.0056,0.67903 c 0,0 -1.5812,0.56657 -2.3518,0.89917 -0.7161,0.30909 -1.4117,0.66487 -2.1074,1.0175 -0.28467,0.14431 -0.56723,0.29263 -0.84543,0.44907 -0.28808,0.16202 -0.57955,0.32006 -0.85214,0.50695 -0.172,0.11791 -0.34009,0.24312 -0.49196,0.38602 -0.08694,0.08181 -0.18025,0.16334 -0.23823,0.26768 -0.05902,0.10621 -0.08173,0.23028 -0.10335,0.34985 -0.11194,0.61893 -0.13229,1.8821 -0.13229,1.8821 l -0.02067,2.0128 -0.01912,0.35605 c 0,0 -0.01766,0.28632 -0.04858,0.42581 0,0 -0.02603,0.20944 -0.0677,0.30489 -0.04565,0.10456 -0.12503,0.22108 -0.19482,0.28164 -0.20754,0.18008 -0.44882,0.3352 -0.66611,0.48679 -0.45596,0.31811 -0.89969,0.63273 -1.325,0.96893 -1.3296,1.0511 -2.3627,1.835 -3.8416,3.299 -1.4789,1.464 -3.7112,4.0162 -4.8927,5.5821 -1.1815,1.5658 -1.8203,2.736 -2.357,3.6525 -0.53667,0.9165 -0.35824,0.72691 -0.94671,1.7906 -0.45616,1.0471 -0.46466,1.0899 -0.47336,1.124 -0.0087,0.0341 -0.68347,1.7823 -0.71055,1.8831 -0.02709,0.10084 -0.11576,0.22996 -0.11576,0.22996 l -0.11834,0.11834 -0.1664,0.13333 -0.21859,0.10387 -0.23926,0.08785 -0.2868,0.10697 -0.28267,0.0801 -0.36638,0.07235 -10.787,2.3208 -4.5542,1.032 -0.48886,0.11472 -0.49144,0.11834 -0.17725,0.05478 -0.09664,0.03928 -0.10284,0.05374 -0.09043,0.05064 -0.14831,0.1049 -0.14934,0.14314 -0.07803,0.09715 -0.0615,0.0894 -0.08268,0.12971 -0.07338,0.23874 -0.02067,0.24288 0.01447,0.25166 0.07235,0.21136 0.10439,0.18242 0.12402,0.15193 0.11162,0.09767 0.20154,0.14883 0.19224,0.10077 0.5054,0.11472 0.55707,0.0217 15.877,-0.07338 25.227,-0.03876 c 0,0 25.137,-0.02954 25.237,-0.04186 0.1,-0.01232 0.16898,-0.03712 0.2465,-0.0739 0.09133,-0.04332 0.16685,-0.09796 0.25115,-0.17002 0.08453,-0.07226 0.13807,-0.16796 0.19792,-0.2682 0.04974,-0.0833 0.07028,-0.22995 0.07028,-0.2744 v -11.776 c -9e-5,-3.9246 -0.02419,-7.8494 -0.02119,-11.774 7e-4,-0.93342 0.0178,-1.867 0.0093,-2.8003 -0.0012,-0.1403 0.0091,-0.28149 -0.0088,-0.42065 -0.01602,-0.1245 -0.04271,-0.24926 -0.08785,-0.36639 -0.0317,-0.08224 -0.07571,-0.16044 -0.12712,-0.23203 -0.05301,-0.07382 -0.11258,-0.14492 -0.18448,-0.2005 -0.07757,-0.05996 -0.1677,-0.10387 -0.25942,-0.13849 -0.11578,-0.0437 -0.23823,-0.07152 -0.36122,-0.08527 -0.16771,-0.01875 -0.33774,-10e-4 -0.50643,0.0047 -0.53566,0.01693 -1.0712,0.04541 -1.6056,0.0863 -1.1544,0.08833 -2.3083,0.19629 -3.4566,0.34365 -1.0971,0.14078 -2.1902,0.31498 -3.2778,0.51625 -1.1252,0.2082 -2.2457,0.44537 -3.3579,0.71468 -1.3581,0.32885 -2.7108,0.68499 -4.0452,1.0997 -1.0079,0.31323 -2.0072,0.65745 -2.9879,1.0475 -1.2404,0.49332 -2.4576,1.0466 -3.6571,1.6325 -1.0375,0.50672 -2.0675,1.0338 -3.0582,1.6268 -0.92012,0.55069 -1.8126,1.1501 -2.6737,1.789 -1.204,0.89324 -2.3813,1.8297 -3.4778,2.852 -0.79899,0.74496 -1.5434,1.5497 -2.25,2.3828 -0.59646,0.70332 -1.161,1.4363 -1.6743,2.2024 -0.46905,0.70009 -0.868,1.4449 -1.2795,2.1802 -0.27065,0.48368 -0.53784,0.96993 -0.78186,1.4676 -0.10916,0.22262 -0.20786,0.45033 -0.30489,0.67851 -0.09575,0.22516 -0.18158,0.4545 -0.27388,0.6811 -0.04924,0.12086 -0.09412,0.27078 -0.14934,0.36225 -0.05523,0.09147 -0.12943,0.14112 -0.21032,0.19017 -0.07149,0.04335 -0.15354,0.06904 -0.23513,0.08733 -0.34086,0.0764 -0.69563,0.07053 -1.0444,0.09043 -0.34347,0.01956 -0.68762,0.03983 -1.0315,0.02842 -0.14921,-0.005 -0.30249,-0.0011 -0.44597,-0.04238 -0.11247,-0.03234 -0.23182,-0.07399 -0.31368,-0.15761 -0.08409,-0.0859 -0.1353,-0.20699 -0.15503,-0.32556 -0.02066,-0.12417 0.0131,-0.253 0.04341,-0.37517 0.07484,-0.30161 0.21098,-0.58527 0.33848,-0.86868 0.13607,-0.30244 0.30049,-0.59108 0.45372,-0.88522 0.16058,-0.30822 0.32028,-0.61688 0.48783,-0.92139 0.27585,-0.50137 0.55873,-0.99902 0.85214,-1.4903 0.32239,-0.53982 0.6452,-1.0805 0.99736,-1.6015 0.39459,-0.58365 0.80403,-1.1587 1.2485,-1.7053 0.42597,-0.52389 0.89556,-1.0109 1.356,-1.5048 0.51528,-0.55269 1.0329,-1.104 1.5735,-1.6319 0.64424,-0.62908 1.3094,-1.2371 1.989,-1.8278 0.51864,-0.45074 1.0442,-0.8951 1.5927,-1.309 0.60307,-0.45501 1.2352,-0.87002 1.864,-1.2888 0.45216,-0.30116 0.91176,-0.59092 1.372,-0.87953 0.44411,-0.27846 0.88533,-0.56305 1.341,-0.82217 0.49381,-0.28082 1.0006,-0.53854 1.5084,-0.79323 0.73634,-0.36933 1.4791,-0.72638 2.2298,-1.0656 0.70689,-0.31939 1.4194,-0.6278 2.141,-0.91261 0.64743,-0.25556 1.3043,-0.48619 1.9622,-0.71365 0.62856,-0.21737 1.2611,-0.42399 1.896,-0.62218 0.87728,-0.27385 1.755,-0.54739 2.6432,-0.78341 1.0438,-0.2774 2.0984,-0.51348 3.1538,-0.74259 0.77762,-0.1688 1.5572,-0.33116 2.3415,-0.4656 0.92452,-0.15849 1.8529,-0.30008 2.7854,-0.40204 1.3027,-0.14246 2.6316,-0.20579 3.9207,-0.29249 0.92386,-0.06214 1.8783,-0.0057 2.7637,-0.28009 0.07934,-0.02458 0.14734,-0.06085 0.21808,-0.10439 0.07074,-0.04354 0.1467,-0.09913 0.20619,-0.1571 0.05208,-0.05074 0.11068,-0.11444 0.14573,-0.18448 0.03939,-0.07874 0.05386,-0.16834 0.0677,-0.25528 0.04876,-0.306 0.05168,-0.92811 0.05168,-0.92811 l -0.02067,-1.0056 -0.04237,-2.3461 c 0,0 0.07286,-1.7923 -0.07545,-2.6701 -0.01537,-0.09097 -0.04057,-0.18201 -0.08372,-0.26355 -0.03719,-0.07027 -0.08848,-0.13407 -0.14728,-0.18759 -0.09159,-0.08336 -0.20041,-0.14919 -0.31264,-0.20154 -0.0961,-0.04483 -0.19924,-0.07677 -0.30386,-0.09405 -0.29482,-0.0487 -0.59332,-0.06213 -0.89297,-0.06304 z"
     clip-path="url(#clipPath157-8)"
     style="fill:#fb4900"
     id="path5" /><text
     transform="scale(1.1844,0.84433)"
     x="41.992332"
     y="72.91127"
     style="font-size:5.1329px;line-height:0%;font-family:Impact;text-align:center;text-anchor:middle;fill:#162c8f;stroke-width:0.42774"
     xml:space="preserve"
     id="text6"><tspan
       x="41.992332"
       y="72.91127"
       style="stroke-width:0.42774"
       id="tspan6"><tspan
   style="fill:#fb4900;stroke-width:0.42774"
   id="tspan5">SOLTEC</tspan>MA 21</tspan></text></g><style
   type="text/css"
   id="style1-9">
g.prefab path {
  vector-effect:non-scaling-stroke;
  -inkscape-stroke:hairline;
  fill: none;
  fill-opacity: 1;
  stroke-opacity: 1;
  stroke: #00349c;
}
</style><path
   style="fill:#1b339e;fill-opacity:1;stroke:none;stroke-width:2.688;stroke-linecap:round;stroke-linejoin:round;stroke-dasharray:none;stroke-opacity:1"
   d="m 315.07236,190.04362 c 0,0 -31.24276,-73.34335 -62.31783,-94.982364 C 224.26986,75.226055 180.87235,89.829568 151.28053,71.687464 134.02423,61.107999 128.20181,37.646373 112.2902,25.135345 97.426674,13.448405 61.439484,0 61.439484,0 H 315.07236 Z"
   id="path151"
   sodipodi:nodetypes="caaaccc" /><text
   xml:space="preserve"
   style="font-size:17.3835px;line-height:0%;font-family:Rockwell;-inkscape-font-specification:Rockwell;text-align:center;text-anchor:middle;fill:#fb4900;fill-opacity:1;stroke:none;stroke-width:3.50452;stroke-linecap:round;stroke-linejoin:round;stroke-dasharray:none;stroke-opacity:1"
   x="213.02048"
   y="40.440239"
   id="text150"
   transform="scale(1.0341088,0.96701624)"><tspan
     sodipodi:role="line"
     id="tspan150"
     x="213.02048"
     y="40.440239"
     style="stroke-width:3.50452">Soldadura Industrial</tspan></text><g
   id="g150"
   transform="matrix(1.5856191,0,0,1.5856191,-176.28435,296.41662)"><g
     id="g151"
     transform="translate(183.1553,-262.11338)"><circle
       style="fill:#007309;fill-opacity:1;stroke:#ffffff;stroke-width:2.05663;stroke-dasharray:none;stroke-opacity:1"
       id="path6"
       cx="93.133148"
       cy="145.88103"
       r="19.571819" /><path
       style="color:#000000;fill:#000000;fill-opacity:0.56391;stroke-width:1.75041;-inkscape-stroke:none;filter:url(#filter8)"
       d="m 90.238786,105.04106 -8.252878,11.10753 -4.225581,-3.77772 c -1.821003,-1.64216 -4.761455,0.64403 -2.680305,3.00166 l 6.402562,5.72356 c 0,0 0.431099,0.34871 1.01089,0.30801 0.569287,-0.04 0.898512,-0.39548 0.898512,-0.39548 l 10.077525,-13.56761 c 1.300715,-2.34127 -1.832456,-4.18844 -3.230725,-2.39995 z"
       id="path7-0"
       transform="matrix(1.1425735,0,0,1.1425735,-2.9248604,16.923154)" /><path
       style="color:#000000;fill:#ffffff;stroke-width:1.99997;-inkscape-stroke:none"
       d="m 100.17958,136.94029 -9.429517,12.69117 -4.828037,-4.31633 c -2.08063,-1.87628 -5.440311,0.73586 -3.062445,3.42962 l 7.315397,6.53959 c 0,0 0.492562,0.39843 1.155016,0.35192 0.650452,-0.0457 1.026616,-0.45186 1.026616,-0.45186 l 11.51431,-15.50199 c 1.48616,-2.67508 -2.09371,-4.7856 -3.69134,-2.74212 z"
       id="path7-1" /></g></g></svg>
